<?xml version="1.0" standalone="no"?>
<!DOCTYPE svg PUBLIC "-//W3C//DTD SVG 20010904//EN"
 "http://www.w3.org/TR/2001/REC-SVG-20010904/DTD/svg10.dtd">
<svg version="1.0" xmlns="http://www.w3.org/2000/svg"
 width="902.000000pt" height="902.000000pt" viewBox="0 0 902.000000 902.000000"
 preserveAspectRatio="xMidYMid meet">
<metadata>
Created by potrace 1.11, written by Peter Selinger 2001-2013
</metadata>
<g transform="translate(0.000000,902.000000) scale(0.100000,-0.100000)"
fill="#000000" stroke="none">
<path d="M7164 6581 c-77 -35 -108 -125 -71 -207 17 -37 17 -44 -1 -167 l-19
-129 24 -9 c50 -19 71 -11 105 39 17 26 62 85 99 130 81 101 99 136 99 196 0
34 -8 56 -31 92 -50 73 -122 92 -205 55z"/>
<path d="M6745 6475 c-5 -1 -38 -11 -72 -20 -65 -19 -67 -21 -78 -86 l-7 -37
42 11 c39 11 43 10 61 -12 10 -13 19 -37 19 -53 0 -84 -62 -235 -139 -337
l-40 -54 -12 29 c-6 16 -27 72 -46 124 -34 91 -98 214 -132 254 -9 10 -38 29
-66 42 -63 30 -175 32 -250 5 -45 -16 -50 -21 -50 -47 0 -29 -1 -30 -25 -17
-54 28 -126 37 -202 24 -264 -43 -455 -284 -394 -495 34 -117 99 -185 239
-250 160 -75 207 -124 207 -213 0 -92 -100 -215 -202 -249 -93 -31 -224 0
-264 61 -19 30 -21 28 33 43 49 15 97 65 112 119 15 52 14 62 -12 113 -39 78
-101 88 -165 27 -37 -35 -82 -119 -82 -154 0 -12 -6 -28 -14 -35 -7 -8 -16
-23 -20 -35 -14 -43 -68 -104 -110 -125 -46 -22 -92 -19 -102 7 -3 7 22 181
55 385 66 402 73 489 41 530 -11 14 -20 30 -20 36 0 21 -46 53 -91 64 -36 9
-61 9 -105 0 -118 -25 -207 -92 -290 -220 -80 -124 -374 -740 -445 -933 -38
-102 -39 -168 -3 -204 25 -25 30 -25 107 -20 47 3 106 14 137 26 49 19 57 26
75 68 11 26 21 51 23 55 2 4 -16 8 -39 10 -65 5 -68 19 -35 153 16 64 32 118
36 120 10 6 291 57 295 53 1 -2 -4 -41 -11 -88 -20 -135 -2 -201 69 -254 45
-33 164 -30 238 7 74 36 138 93 187 167 l40 59 23 -35 c29 -42 99 -90 153
-105 24 -7 69 -9 107 -5 238 22 452 189 505 395 23 90 13 150 -37 229 -44 69
-96 112 -179 149 -113 49 -163 79 -201 120 -36 39 -39 47 -39 98 0 128 93 228
225 242 60 6 136 -21 154 -56 11 -19 9 -21 -19 -21 -68 0 -129 -58 -150 -142
-15 -59 -1 -107 41 -143 36 -30 73 -32 115 -6 93 56 137 201 100 324 l-14 47
33 0 c68 0 85 -28 170 -275 l78 -226 -37 -177 c-57 -277 -47 -358 49 -390 48
-17 162 -3 222 25 32 16 38 25 48 69 l12 51 -37 -1 c-47 -1 -70 18 -70 58 0
17 20 124 45 236 37 169 49 208 67 223 117 94 159 132 214 197 73 87 129 190
146 272 11 52 10 61 -10 101 -12 24 -30 51 -39 59 -30 27 -127 46 -168 33z
m-1937 -517 c7 -7 12 -32 12 -56 0 -36 -76 -523 -83 -528 -7 -6 -272 -52 -276
-48 -7 6 50 181 106 324 92 237 189 360 241 308z"/>
<path d="M7765 6437 c-100 -56 -158 -228 -105 -315 31 -50 56 -55 140 -26 115
40 162 22 179 -70 25 -137 -55 -388 -150 -470 -37 -31 -96 -56 -133 -56 -23 0
-66 45 -66 68 0 15 9 21 38 25 126 21 219 205 165 328 -50 113 -207 35 -279
-138 -36 -87 -41 -224 -10 -286 43 -87 136 -116 267 -83 204 52 344 176 405
358 20 61 34 85 69 116 41 39 95 62 141 62 53 0 130 -35 174 -80 177 -176 50
-507 -279 -729 -195 -132 -371 -199 -727 -280 -598 -135 -1174 -208 -2289
-291 -736 -55 -1043 -82 -1454 -131 -851 -100 -1578 -239 -2006 -383 -644
-218 -1134 -559 -1417 -987 -51 -76 -128 -217 -128 -233 0 -3 35 11 78 33 250
125 563 176 782 126 110 -25 231 -86 298 -151 54 -52 56 -53 70 -33 33 48 145
168 204 220 479 420 1217 713 2375 943 415 83 735 134 1748 281 1093 158 1367
207 1689 300 320 91 627 224 821 353 241 161 401 352 451 540 17 64 20 210 5
260 -17 57 -100 189 -143 227 -22 21 -66 49 -97 64 -47 22 -70 26 -146 26 -80
0 -95 -3 -137 -28 l-47 -28 -6 28 c-10 48 -59 133 -92 163 -53 48 -139 60
-230 34 l-21 -6 24 48 c15 30 24 65 24 94 0 46 -22 107 -44 122 -23 16 -101 7
-141 -15z"/>
<path d="M4055 5974 c-44 -14 -138 -31 -210 -40 -336 -39 -452 -66 -600 -141
-49 -24 -96 -50 -103 -56 -14 -11 -102 -180 -102 -194 0 -5 12 -16 26 -24 27
-16 27 -16 88 46 33 34 93 83 131 107 71 46 208 118 190 100 -7 -7 -159 -140
-204 -178 -6 -5 -228 -1028 -225 -1035 2 -3 41 1 88 10 l85 16 50 66 c56 75
103 109 151 109 18 0 73 -19 124 -41 74 -34 105 -43 167 -47 67 -4 84 -1 133
21 95 44 198 157 241 265 17 41 17 42 -8 71 l-25 30 -39 -67 c-78 -130 -147
-153 -315 -104 -56 16 -118 33 -137 37 -47 10 -113 -11 -161 -52 -22 -19 -40
-32 -40 -29 0 7 82 370 84 372 0 1 75 16 165 32 89 17 164 32 166 34 1 2 5 29
9 61 8 69 19 67 -170 32 -75 -14 -138 -24 -139 -23 -2 2 20 104 49 228 l51
225 51 3 c33 2 86 -7 155 -26 134 -38 197 -46 245 -33 67 19 82 38 104 131 11
47 22 93 24 103 5 21 1 21 -99 -9z"/>
<path d="M2885 5773 c-11 -2 -50 -13 -88 -24 -67 -19 -67 -20 -98 -81 l-31
-60 34 4 c70 11 94 -20 68 -88 -6 -15 -35 -116 -65 -224 -72 -259 -147 -476
-198 -575 -51 -99 -116 -168 -154 -163 -44 5 -50 27 -30 120 108 502 157 756
157 813 0 78 -27 138 -73 162 -39 20 -141 13 -212 -15 -43 -17 -52 -25 -62
-58 -19 -65 -17 -77 13 -70 14 4 35 4 45 1 39 -13 40 -46 5 -192 -19 -76 -48
-203 -66 -283 -76 -343 -143 -501 -239 -562 -25 -16 -29 -16 -49 -2 -14 10
-22 26 -22 45 0 16 29 207 65 424 36 217 65 412 65 432 0 53 -48 143 -88 166
-51 30 -149 25 -228 -12 -70 -33 -160 -111 -189 -165 l-18 -34 -47 48 c-66 68
-133 88 -245 72 -267 -39 -463 -281 -401 -496 34 -117 99 -185 239 -250 160
-75 207 -124 207 -213 0 -92 -100 -215 -202 -249 -93 -31 -224 0 -264 61 -19
30 -21 28 33 43 49 15 97 65 112 119 15 52 14 62 -12 113 -40 80 -102 88 -169
23 -106 -104 -110 -289 -8 -391 59 -60 105 -77 200 -77 243 1 480 175 536 394
23 90 13 150 -37 229 -44 69 -96 112 -179 149 -113 49 -163 79 -201 120 -36
39 -39 47 -39 98 0 128 93 228 225 242 60 6 136 -21 154 -56 11 -19 9 -21 -19
-21 -95 0 -182 -129 -150 -224 14 -44 63 -86 98 -86 60 0 126 65 158 157 10
28 21 50 26 47 4 -2 15 15 26 38 21 47 79 104 116 114 13 3 37 4 52 2 23 -2
30 -9 32 -29 2 -15 -24 -195 -58 -400 -40 -245 -60 -393 -58 -430 5 -76 34
-128 89 -157 38 -20 54 -23 114 -19 95 6 154 35 235 113 l68 65 21 -30 c50
-70 187 -80 306 -22 112 55 174 140 319 428 94 188 302 640 327 710 20 54 26
153 10 153 -5 0 -11 9 -14 20 -8 33 -74 48 -142 33z"/>
<path d="M6245 3715 c-140 -32 -245 -69 -345 -120 l-85 -45 -47 -94 -47 -95
30 -21 30 -22 39 44 c47 54 158 132 260 183 41 20 73 35 70 33 -4 -4 -79 -68
-184 -159 -9 -8 -235 -1030 -230 -1040 2 -3 58 5 126 17 68 13 161 23 208 24
172 1 342 55 442 141 98 84 160 215 162 344 1 72 -2 84 -27 120 -15 22 -27 45
-27 52 0 19 -61 60 -110 73 l-45 12 25 16 c49 31 166 158 189 205 13 26 25 74
28 107 5 51 2 66 -22 112 -37 72 -69 104 -123 123 -66 22 -197 18 -317 -10z
m144 -93 c70 -35 88 -124 51 -244 -25 -80 -71 -151 -117 -180 -20 -12 -65 -27
-101 -34 -63 -12 -64 -12 -59 10 2 11 26 117 53 235 41 180 51 214 69 221 33
14 68 11 104 -8z m15 -572 c14 -13 21 -38 24 -81 9 -122 -41 -254 -131 -344
-67 -66 -134 -98 -216 -103 -58 -4 -63 -3 -58 14 4 11 29 123 58 249 28 127
52 232 54 235 2 3 20 7 41 8 21 2 63 14 93 27 63 26 105 25 135 -5z"/>
<path d="M5375 3566 c-85 -21 -107 -36 -121 -86 -19 -62 -19 -60 31 -60 72 0
75 -18 36 -197 -75 -337 -221 -649 -376 -808 -56 -58 -98 -72 -107 -37 -3 9
35 197 84 417 49 220 91 434 94 475 13 174 -77 236 -261 179 -70 -21 -81 -33
-101 -113 -7 -28 -6 -29 27 -22 42 7 79 -15 79 -47 0 -12 -39 -203 -87 -424
l-87 -403 -23 22 c-13 12 -24 20 -26 17 -1 -2 -10 -20 -19 -39 -24 -54 -64
-96 -113 -120 -47 -23 -79 -20 -94 8 -6 12 19 143 76 407 97 450 103 506 60
573 -15 23 -40 48 -55 53 -35 14 -133 6 -200 -17 -57 -19 -64 -29 -78 -99 -6
-36 -6 -37 22 -34 92 7 94 -3 37 -268 -26 -120 -48 -220 -49 -222 -2 -2 -64
-15 -139 -30 l-137 -27 6 31 c3 16 21 102 40 190 42 189 45 257 14 316 -37 71
-117 87 -243 48 -70 -21 -80 -33 -99 -113 -7 -28 -6 -28 26 -22 41 8 78 -15
78 -49 0 -13 -39 -200 -86 -417 -101 -456 -112 -550 -72 -608 35 -51 91 -67
183 -51 38 6 86 19 105 29 29 14 36 25 45 69 l12 52 -28 -6 c-44 -8 -79 19
-79 62 0 29 65 334 72 340 8 6 260 47 264 42 3 -3 -9 -72 -25 -153 -31 -152
-32 -201 -6 -254 46 -90 166 -110 293 -49 59 29 143 108 192 181 l40 60 0 -43
c0 -95 67 -146 174 -135 139 14 262 116 387 317 l34 55 0 -82 c0 -68 4 -87 21
-110 40 -55 70 -69 142 -69 118 0 240 74 321 196 23 34 46 78 52 99 10 34 9
42 -11 70 l-22 32 -29 -50 c-33 -58 -99 -118 -140 -127 -35 -8 -69 10 -69 36
0 11 36 190 81 397 95 446 100 488 66 552 -40 75 -100 93 -212 66z"/>
</g>
</svg>
